<svg width="80" height="80" viewBox="0 0 80 80" fill="none" xmlns="http://www.w3.org/2000/svg">
<rect width="80" height="80" rx="12" fill="#18191D"/>
<path d="M32.4074 62.4442C36.4963 62.4442 39.8148 59.1257 39.8148 55.0368V47.6294H32.4074C28.3185 47.6294 25 50.9479 25 55.0368C25 59.1257 28.3185 62.4442 32.4074 62.4442Z" fill="#0ACF83"/>
<path d="M25 40.2218C25 36.133 28.3185 32.8145 32.4074 32.8145H39.8148V47.6292H32.4074C28.3185 47.6292 25 44.3107 25 40.2218Z" fill="#A259FF"/>
<path d="M25 25.4074C25 21.3185 28.3185 18 32.4074 18H39.8148V32.8148H32.4074C28.3185 32.8148 25 29.4963 25 25.4074Z" fill="#F24E1E"/>
<path d="M39.8147 18H47.2221C51.311 18 54.6295 21.3185 54.6295 25.4074C54.6295 29.4963 51.311 32.8148 47.2221 32.8148H39.8147V18Z" fill="#FF7262"/>
<path d="M54.6295 40.2218C54.6295 44.3107 51.311 47.6292 47.2221 47.6292C43.1332 47.6292 39.8147 44.3107 39.8147 40.2218C39.8147 36.133 43.1332 32.8145 47.2221 32.8145C51.311 32.8145 54.6295 36.133 54.6295 40.2218Z" fill="#1ABCFE"/>
</svg>
