<svg width="80" height="80" viewBox="0 0 80 80" fill="none" xmlns="http://www.w3.org/2000/svg">
<rect width="80" height="80" rx="12" fill="#18191D"/>
<path d="M34.1674 52.1492C34.1674 52.1492 32.469 53.1368 35.3761 53.471C38.898 53.8727 40.6979 53.8152 44.5791 53.0806C44.5791 53.0806 45.5995 53.7204 47.0244 54.2746C38.3241 58.0034 27.3336 54.0586 34.1674 52.1492ZM33.1042 47.2832C33.1042 47.2832 31.1993 48.6933 34.1086 48.9942C37.8707 49.3823 40.8418 49.414 45.9829 48.4241C45.9829 48.4241 46.694 49.145 47.8121 49.5393C37.2927 52.6153 25.576 49.7818 33.1042 47.2832Z" fill="#5382A1"/>
<path d="M42.0669 39.029C44.2108 41.4971 41.5037 43.7182 41.5037 43.7182C41.5037 43.7182 46.9471 40.9081 44.4471 37.3892C42.1123 34.1078 40.3217 32.4771 50.015 26.8555C50.015 26.8555 34.7998 30.6555 42.0669 39.0288" fill="#E76F00"/>
<path d="M53.5739 55.7482C53.5739 55.7482 54.8308 56.7837 52.1897 57.5849C47.1677 59.1063 31.2876 59.5657 26.8761 57.6455C25.2903 56.9558 28.2642 55.9984 29.1996 55.7974C30.1751 55.5858 30.7327 55.6253 30.7327 55.6253C28.9691 54.3829 19.3336 58.0647 25.8384 59.119C43.5776 61.9959 58.1752 57.8237 53.5739 55.7482ZM34.984 42.2414C34.984 42.2414 26.9064 44.1601 32.1236 44.8566C34.3264 45.1516 38.7177 45.0849 42.8081 44.7421C46.151 44.4603 49.5077 43.8606 49.5077 43.8606C49.5077 43.8606 48.329 44.3654 47.4762 44.9477C39.2735 47.1051 23.4272 46.1015 27.9892 43.8947C31.8472 42.0298 34.9841 42.2414 34.9841 42.2414H34.984ZM49.4744 50.3409C57.813 46.0079 53.9575 41.844 51.2665 42.4051C50.6069 42.5422 50.3129 42.6612 50.3129 42.6612C50.3129 42.6612 50.5577 42.2777 51.0254 42.1117C56.349 40.24 60.4433 47.6318 49.3068 50.5593C49.3068 50.5595 49.4359 50.4441 49.4744 50.3409Z" fill="#5382A1"/>
<path d="M44.4471 17.778C44.4471 17.778 49.0651 22.3977 40.0671 29.5011C32.8518 35.1994 38.4218 38.4483 40.0642 42.1604C35.8524 38.3605 32.7614 35.0152 34.8351 31.9019C37.8786 27.3315 46.3103 25.1157 44.4471 17.7778" fill="#E76F00"/>
<path d="M35.8035 62.0822C43.8074 62.5946 56.0982 61.798 56.3893 58.0107C56.3893 58.0107 55.8298 59.4466 49.7745 60.5867C42.943 61.8722 34.5174 61.7222 29.52 60.8982C29.5201 60.8982 30.543 61.7449 35.8036 62.0822" fill="#5382A1"/>
</svg>
