<svg width="80" height="80" viewBox="0 0 80 80" fill="none" xmlns="http://www.w3.org/2000/svg">
<rect width="80" height="80" rx="12" fill="#18191D"/>
<path d="M39.9999 43.9182C42.1639 43.9182 43.9182 42.1639 43.9182 39.9999C43.9182 37.8358 42.1639 36.0815 39.9999 36.0815C37.8358 36.0815 36.0815 37.8358 36.0815 39.9999C36.0815 42.1639 37.8358 43.9182 39.9999 43.9182Z" fill="#61DAFB"/>
<path fill-rule="evenodd" clip-rule="evenodd" d="M21.5759 37.9381C20.6873 38.7402 20.3952 39.4396 20.3952 39.9998C20.3952 40.56 20.6873 41.2594 21.5759 42.0615C22.4638 42.8631 23.8289 43.6504 25.637 44.3408C29.2432 45.7177 34.3208 46.599 39.9998 46.599C45.6787 46.599 50.7563 45.7177 54.3625 44.3408C56.1706 43.6504 57.5357 42.8631 58.4236 42.0615C59.3122 41.2594 59.6043 40.56 59.6043 39.9998C59.6043 39.4396 59.3122 38.7402 58.4236 37.9381C57.5357 37.1365 56.1706 36.3492 54.3625 35.6589C50.7563 34.282 45.6787 33.4006 39.9998 33.4006C34.3208 33.4006 29.2432 34.282 25.637 35.6589C23.8289 36.3492 22.4638 37.1365 21.5759 37.9381ZM24.6284 32.9878C28.6319 31.4592 34.0668 30.5435 39.9998 30.5435C45.9327 30.5435 51.3676 31.4592 55.3711 32.9878C57.3678 33.7502 59.0818 34.6927 60.3217 35.812C61.561 36.9307 62.4456 38.3432 62.4456 39.9998C62.4456 41.6564 61.561 43.0689 60.3217 44.1877C59.0818 45.3069 57.3678 46.2495 55.3711 47.0119C51.3676 48.5405 45.9327 49.4562 39.9998 49.4562C34.0668 49.4562 28.6319 48.5405 24.6284 47.0119C22.6317 46.2495 20.9177 45.3069 19.6778 44.1877C18.4385 43.0689 17.554 41.6564 17.554 39.9998C17.554 38.3432 18.4385 36.9307 19.6778 35.812C20.9177 34.6927 22.6317 33.7502 24.6284 32.9878Z" fill="#61DAFB"/>
<path fill-rule="evenodd" clip-rule="evenodd" d="M32.5849 23.0167C31.4473 22.6487 30.6917 22.7436 30.2005 23.0272C29.7093 23.3107 29.2494 23.9177 28.9993 25.0868C28.7492 26.256 28.75 27.8307 29.0559 29.7405C29.6662 33.5499 31.441 38.386 34.2796 43.3026C37.1182 48.2193 40.419 52.1743 43.4129 54.6075C44.9138 55.8274 46.2772 56.6154 47.4148 56.9834C48.5523 57.3514 49.3079 57.2565 49.7991 56.9729C50.2903 56.6893 50.7503 56.0824 51.0004 54.9133C51.2504 53.7441 51.2497 52.1693 50.9437 50.2595C50.3334 46.4502 48.5587 41.6141 45.7201 36.6974C42.8815 31.7808 39.5806 27.8258 36.5868 25.3926C35.0859 24.1727 33.7224 23.3847 32.5849 23.0167ZM38.3778 23.1805C41.705 25.8847 45.2168 30.1353 48.1841 35.2748C51.1514 40.4144 53.0767 45.581 53.755 49.8145C54.0933 51.9261 54.134 53.8828 53.7845 55.5169C53.435 57.151 52.6543 58.619 51.2257 59.4438C49.7971 60.2686 48.1354 60.2106 46.5455 59.6963C44.9556 59.182 43.2814 58.1683 41.6218 56.8195C38.2946 54.1154 34.7829 49.8648 31.8156 44.7252C28.8482 39.5857 26.923 34.4191 26.2447 30.1856C25.9064 28.0739 25.8657 26.1172 26.2152 24.4832C26.5647 22.8491 27.3453 21.3811 28.774 20.5563C30.2026 19.7314 31.8643 19.7894 33.4542 20.3038C35.0441 20.8181 36.7183 21.8317 38.3778 23.1805Z" fill="#61DAFB"/>
<path fill-rule="evenodd" clip-rule="evenodd" d="M51.0003 25.0866C50.7502 23.9175 50.2903 23.3105 49.7991 23.027C49.3079 22.7434 48.5523 22.6485 47.4147 23.0165C46.2772 23.3845 44.9137 24.1725 43.4128 25.3924C40.419 27.8256 37.1181 31.7806 34.2795 36.6972C31.4409 41.6139 29.6662 46.45 29.0559 50.2593C28.7499 52.1691 28.7492 53.7439 28.9992 54.9131C29.2493 56.0822 29.7093 56.6891 30.2005 56.9727C30.6917 57.2563 31.4473 57.3512 32.5848 56.9832C33.7224 56.6152 35.0858 55.8272 36.5867 54.6073C39.5806 52.1741 42.8814 48.2191 45.72 43.3024C48.5586 38.3858 50.3334 33.5497 50.9437 29.7403C51.2496 27.8305 51.2504 26.2558 51.0003 25.0866ZM53.7549 30.1854C53.0766 34.4189 51.1514 39.5855 48.184 44.725C45.2167 49.8646 41.7049 54.1152 38.3778 56.8193C36.7182 58.1681 35.044 59.1818 33.4541 59.6961C31.8642 60.2104 30.2025 60.2684 28.7739 59.4436C27.3453 58.6188 26.5646 57.1508 26.2151 55.5166C25.8656 53.8826 25.9063 51.9259 26.2446 49.8143C26.9229 45.5808 28.8482 40.4142 31.8155 35.2746C34.7828 30.1351 38.2946 25.8845 41.6218 23.1803C43.2813 21.8315 44.9555 20.8179 46.5454 20.3036C48.1353 19.7892 49.797 19.7312 51.2256 20.5561C52.6542 21.3809 53.4349 22.8489 53.7844 24.483C54.1339 26.117 54.0932 28.0737 53.7549 30.1854Z" fill="#61DAFB"/>
</svg>
