<svg width="80" height="80" viewBox="0 0 80 80" fill="none" xmlns="http://www.w3.org/2000/svg">
<rect width="80" height="80" rx="12" fill="#18191D"/>
<path d="M23.9681 57.793L20.4031 17.7778H59.5972L56.0321 57.7713L39.9677 62.2223" fill="#E44D26"/>
<path d="M40 58.8193V21.062H56.0212L52.9639 55.2002" fill="#F16529"/>
<path d="M27.6846 25.9561H40.0002V30.8607H33.0646L33.5183 35.8842H40.0002V40.7781H29.0242L27.6846 25.9561ZM29.2402 43.2412H34.1665L34.5122 47.1628L40.0002 48.632V53.7527L29.9316 50.9439" fill="#EBEBEB"/>
<path d="M52.2723 25.9561H39.9783V30.8607H51.8186L52.2723 25.9561ZM51.3757 35.8842H39.9783V40.7889H46.0281L45.4555 47.1628L39.9783 48.632V53.7311L50.0253 50.9439" fill="white"/>
</svg>
