<svg width="80" height="80" viewBox="0 0 80 80" fill="none" xmlns="http://www.w3.org/2000/svg">
<rect width="80" height="80" rx="12" fill="#18191D"/>
<path d="M17.7776 17.7778H62.222V62.2223H17.7776V17.7778Z" fill="#017ACB"/>
<path d="M39.1179 34.2362H41.2499V37.9167H35.486V54.2917L35.3332 54.3334C35.1249 54.3889 32.3818 54.3889 31.7915 54.3264L31.3193 54.2848V37.9167H25.5554V34.2362L27.3818 34.2153C28.3818 34.2014 30.9513 34.2014 33.0902 34.2153C35.229 34.2292 37.9374 34.2362 39.1179 34.2362ZM55.3888 52.5556C54.5416 53.4514 53.6319 53.9514 52.118 54.3612C51.4582 54.5417 51.3471 54.5487 49.861 54.5417C48.3749 54.5348 48.2568 54.5348 47.5346 54.3473C45.6666 53.8681 44.1596 52.9306 43.1318 51.6042C42.8402 51.2292 42.361 50.4514 42.361 50.3542C42.361 50.3264 42.4304 50.2639 42.5207 50.2223C42.611 50.1806 42.7985 50.0626 42.9513 49.9723C43.1041 49.882 43.3818 49.7153 43.5693 49.6181C43.7568 49.5209 44.2985 49.2014 44.7707 48.9167C45.243 48.632 45.6735 48.4028 45.7221 48.4028C45.7707 48.4028 45.861 48.5001 45.9305 48.6181C46.3471 49.3195 47.3193 50.2153 48.0068 50.5209C48.4305 50.7014 49.368 50.9028 49.8194 50.9028C50.236 50.9028 50.9999 50.7223 51.4096 50.5348C51.8471 50.3334 52.0694 50.132 52.3332 49.7292C52.5138 49.4445 52.5346 49.3681 52.5277 48.8264C52.5277 48.3264 52.4999 48.1876 52.361 47.9584C51.9721 47.3195 51.4444 46.9862 49.3055 46.0417C47.0971 45.0626 46.1041 44.4792 45.2985 43.6945C44.7013 43.1112 44.5832 42.9514 44.2082 42.2223C43.7221 41.2848 43.6596 40.9792 43.6527 39.5834C43.6457 38.6042 43.6666 38.2848 43.7707 37.9514C43.9166 37.4514 44.3888 36.4862 44.6041 36.2431C45.0485 35.7223 45.2082 35.5626 45.5207 35.3056C46.4652 34.5278 47.9374 34.0139 49.3471 33.9653C49.5069 33.9653 50.0346 33.9931 50.5277 34.0278C51.9444 34.1459 52.9096 34.4931 53.8402 35.2362C54.5416 35.7917 55.6041 37.0973 55.4999 37.2709C55.4305 37.3751 52.6596 39.2223 52.4791 39.2778C52.368 39.3126 52.2916 39.2709 52.1388 39.0903C51.1944 37.9584 50.8124 37.7153 49.8957 37.6598C49.243 37.6181 48.8957 37.6945 48.4582 37.9862C47.9999 38.2917 47.7777 38.757 47.7777 39.4028C47.7846 40.3473 48.1457 40.7917 49.4791 41.4514C50.3402 41.8751 51.0763 42.2223 51.1319 42.2223C51.2152 42.2223 52.9999 43.1112 53.4652 43.3889C55.6319 44.6598 56.5138 45.9653 56.743 48.2153C56.9096 49.9098 56.4305 51.4584 55.3888 52.5556Z" fill="white"/>
</svg>
