<svg width="80" height="80" viewBox="0 0 80 80" fill="none" xmlns="http://www.w3.org/2000/svg">
<rect width="80" height="80" rx="12" fill="#18191D"/>
<path d="M62.4447 18H18.0002V62.4444H62.4447V18Z" fill="#F7DF1E"/>
<path d="M47.8555 52.7222C48.7507 54.184 49.9154 55.2584 51.9754 55.2584C53.7059 55.2584 54.8114 54.3935 54.8114 53.1984C54.8114 51.7663 53.6756 51.2591 51.7708 50.426L50.7267 49.978C47.713 48.694 45.7109 47.0856 45.7109 43.6852C45.7109 40.5529 48.0975 38.1685 51.8273 38.1685C54.4826 38.1685 56.3916 39.0926 57.7673 41.5124L54.5151 43.6006C53.799 42.3166 53.0266 41.8108 51.8273 41.8108C50.604 41.8108 49.8287 42.5868 49.8287 43.6006C49.8287 44.8535 50.6047 45.3607 52.3966 46.1367L53.4407 46.584C56.9892 48.1057 58.9927 49.657 58.9927 53.1448C58.9927 56.905 56.0389 58.9649 52.0721 58.9649C48.1934 58.9649 45.6876 57.1166 44.4615 54.694L47.8555 52.7222ZM33.102 53.0842C33.7581 54.2482 34.3549 55.2323 35.7899 55.2323C37.162 55.2323 38.0276 54.6954 38.0276 52.608V38.4069H42.204V52.6644C42.204 56.9889 39.6685 58.9572 35.9676 58.9572C32.6237 58.9572 30.6872 57.2267 29.7024 55.1424L33.102 53.0842Z" fill="black"/>
</svg>
