<svg width="80" height="80" viewBox="0 0 80 80" fill="none" xmlns="http://www.w3.org/2000/svg">
<rect width="80" height="80" rx="12" fill="#18191D"/>
<path d="M50.2274 46.1878C49.2069 46.1878 48.3769 45.3571 48.3769 44.3366C48.3769 43.3162 49.2069 42.4861 50.2274 42.4861C51.248 42.4861 52.0781 43.316 52.0781 44.3366C52.0781 45.3572 51.248 46.1878 50.2274 46.1878ZM29.7717 46.1878C28.7513 46.1878 27.9212 45.3571 27.9212 44.3366C27.9212 43.3162 28.7511 42.4861 29.7717 42.4861C30.7922 42.4861 31.6223 43.316 31.6223 44.3366C31.6223 45.3572 30.7924 46.1878 29.7717 46.1878ZM50.8912 35.0398L54.5899 28.6338C54.6917 28.457 54.7192 28.2471 54.6664 28.05C54.6136 27.853 54.4848 27.6849 54.3082 27.5827C54.1314 27.4809 53.9215 27.4534 53.7245 27.5062C53.5274 27.559 53.3593 27.6878 53.2571 27.8644L49.5121 34.3513C46.6481 33.0444 43.4317 32.3163 39.9996 32.3163C36.5674 32.3163 33.3511 33.0444 30.4872 34.3513L26.742 27.8644C26.6398 27.6878 26.4717 27.559 26.2747 27.5062C26.0776 27.4534 25.8677 27.4809 25.6909 27.5827C25.5142 27.6848 25.3853 27.8529 25.3325 28.05C25.2797 28.2471 25.3073 28.4571 25.4092 28.6338L29.108 35.0398C22.7567 38.4941 18.4128 44.924 17.7773 52.5205H62.2218C61.5858 44.9242 57.2419 38.4941 50.8912 35.0396" fill="#3DDB85"/>
</svg>
