<svg width="80" height="80" viewBox="0 0 80 80" fill="none" xmlns="http://www.w3.org/2000/svg">
<rect width="80" height="80" rx="12" fill="#18191D"/>
<path d="M62.2221 17.7778H40.0924L18.9609 40.0001H39.9609L40.0591 39.9001L62.2221 17.7778Z" fill="url(#paint0_linear_219_6881)"/>
<path d="M62.222 62.2221H17.7776H62.222ZM40.0591 39.8999L39.9609 39.9999H40.1591L40.0591 39.8999Z" fill="url(#paint1_linear_219_6881)"/>
<path d="M40.0924 17.7778H17.7776V41.2445V40.0001H18.9609L40.0924 17.7778Z" fill="url(#paint2_linear_219_6881)"/>
<path d="M39.9609 40H18.9609L17.7776 41.2444V62.2222L39.9609 40Z" fill="url(#paint3_linear_219_6881)"/>
<path d="M40.1591 40H39.9609L17.7776 62.2222H62.222L40.1591 40Z" fill="url(#paint4_linear_219_6881)"/>
<path d="M18.9609 40H17.7776V41.2444L18.9609 40Z" fill="url(#paint5_linear_219_6881)"/>
<defs>
<linearGradient id="paint0_linear_219_6881" x1="9.84517" y1="58.394" x2="51.2031" y2="17.0361" gradientUnits="userSpaceOnUse">
<stop stop-color="#C757BC"/>
<stop offset="0.108" stop-color="#C757BC"/>
<stop offset="0.173" stop-color="#CD5CA9"/>
<stop offset="0.492" stop-color="#E8744F"/>
<stop offset="0.716" stop-color="#F88316"/>
<stop offset="0.823" stop-color="#FF8900"/>
<stop offset="1" stop-color="#FF8900"/>
</linearGradient>
<linearGradient id="paint1_linear_219_6881" x1="32.1349" y1="70.2279" x2="52.2935" y2="50.0693" gradientUnits="userSpaceOnUse">
<stop stop-color="#00AFFF"/>
<stop offset="0.296" stop-color="#00AFFF"/>
<stop offset="0.694" stop-color="#5282FF"/>
<stop offset="1" stop-color="#945DFF"/>
</linearGradient>
<linearGradient id="paint2_linear_219_6881" x1="17.3089" y1="30.0606" x2="31.4503" y2="15.9187" gradientUnits="userSpaceOnUse">
<stop stop-color="#00AFFF"/>
<stop offset="0.296" stop-color="#00AFFF"/>
<stop offset="0.694" stop-color="#5282FF"/>
<stop offset="1" stop-color="#945DFF"/>
</linearGradient>
<linearGradient id="paint3_linear_219_6881" x1="10.0933" y1="58.642" x2="51.4512" y2="17.2841" gradientUnits="userSpaceOnUse">
<stop stop-color="#AD4CA4"/>
<stop offset="0.108" stop-color="#AD4CA4"/>
<stop offset="0.173" stop-color="#B25093"/>
<stop offset="0.492" stop-color="#CA6545"/>
<stop offset="0.716" stop-color="#D87213"/>
<stop offset="0.823" stop-color="#DE7700"/>
<stop offset="1" stop-color="#DE7700"/>
</linearGradient>
<linearGradient id="paint4_linear_219_6881" x1="32.1349" y1="70.228" x2="52.2934" y2="50.0694" gradientUnits="userSpaceOnUse">
<stop stop-color="#0098DE"/>
<stop offset="0.296" stop-color="#0098DE"/>
<stop offset="0.694" stop-color="#4771DE"/>
<stop offset="1" stop-color="#8151DE"/>
</linearGradient>
<linearGradient id="paint5_linear_219_6881" x1="22.8666" y1="35.6182" x2="37.008" y2="21.4763" gradientUnits="userSpaceOnUse">
<stop stop-color="#0098DE"/>
<stop offset="0.296" stop-color="#0098DE"/>
<stop offset="0.694" stop-color="#4771DE"/>
<stop offset="1" stop-color="#8151DE"/>
</linearGradient>
</defs>
</svg>
