<svg width="80" height="80" viewBox="0 0 80 80" fill="none" xmlns="http://www.w3.org/2000/svg">
<rect width="80" height="80" rx="12" fill="#18191D"/>
<path d="M39.8397 17.8936C28.5569 17.8936 29.2614 22.7864 29.2614 22.7864L29.2739 27.8556H40.0409V29.3775H24.9974C24.9974 29.3775 17.7776 28.5587 17.7776 39.9429C17.7776 51.3275 24.0793 50.9238 24.0793 50.9238H27.8401V45.6409C27.8401 45.6409 27.6373 39.3392 34.0411 39.3392H44.72C44.72 39.3392 50.7198 39.4362 50.7198 33.5407V23.7929C50.7198 23.7929 51.631 17.8936 39.8397 17.8936ZM33.9028 21.3025C34.1572 21.3022 34.4092 21.3522 34.6443 21.4495C34.8794 21.5467 35.093 21.6894 35.2729 21.8693C35.4529 22.0492 35.5955 22.2628 35.6928 22.4979C35.79 22.733 35.84 22.985 35.8398 23.2394C35.84 23.4939 35.79 23.7458 35.6928 23.981C35.5955 24.2161 35.4529 24.4297 35.2729 24.6096C35.093 24.7895 34.8794 24.9322 34.6443 25.0294C34.4092 25.1267 34.1572 25.1766 33.9028 25.1764C33.6484 25.1766 33.3964 25.1267 33.1613 25.0294C32.9262 24.9322 32.7125 24.7895 32.5326 24.6096C32.3527 24.4297 32.2101 24.2161 32.1128 23.981C32.0155 23.7458 31.9656 23.4939 31.9658 23.2394C31.9656 22.985 32.0155 22.733 32.1128 22.4979C32.2101 22.2628 32.3527 22.0492 32.5326 21.8693C32.7125 21.6894 32.9262 21.5467 33.1613 21.4495C33.3964 21.3522 33.6484 21.3022 33.9028 21.3025Z" fill="url(#paint0_linear_219_6875)"/>
<path d="M40.16 62.1068C51.4428 62.1068 50.7383 57.2139 50.7383 57.2139L50.7258 52.1449H39.9586V50.6229H55.0021C55.0021 50.6229 62.2219 51.4418 62.2219 40.0572C62.2219 28.6727 55.9203 29.0765 55.9203 29.0765H52.1595V34.3592C52.1595 34.3592 52.3622 40.6609 45.9584 40.6609H35.2795C35.2795 40.6609 29.2797 40.5639 29.2797 46.4596V56.2076C29.2797 56.2076 28.3687 62.1068 40.1598 62.1068H40.16ZM46.0969 58.6982C45.8425 58.6984 45.5905 58.6485 45.3554 58.5512C45.1203 58.4539 44.9067 58.3113 44.7268 58.1314C44.5468 57.9515 44.4042 57.7378 44.3069 57.5027C44.2097 57.2676 44.1597 57.0156 44.1599 56.7612C44.1597 56.5068 44.2096 56.2548 44.3069 56.0196C44.4041 55.7845 44.5468 55.5709 44.7267 55.3909C44.9066 55.211 45.1202 55.0683 45.3553 54.9711C45.5905 54.8738 45.8425 54.8238 46.0969 54.8241C46.3513 54.8238 46.6033 54.8738 46.8384 54.971C47.0735 55.0683 47.2871 55.211 47.4671 55.3909C47.647 55.5708 47.7896 55.7844 47.8869 56.0195C47.9842 56.2546 48.0341 56.5066 48.0339 56.761C48.0341 57.0155 47.9842 57.2674 47.8869 57.5025C47.7896 57.7377 47.647 57.9513 47.4671 58.1312C47.2871 58.3111 47.0735 58.4538 46.8384 58.551C46.6033 58.6483 46.3513 58.6982 46.0969 58.698V58.6982Z" fill="url(#paint1_linear_219_6875)"/>
<defs>
<linearGradient id="paint0_linear_219_6875" x1="22.0487" y1="21.8703" x2="44.074" y2="43.6759" gradientUnits="userSpaceOnUse">
<stop stop-color="#387EB8"/>
<stop offset="1" stop-color="#366994"/>
</linearGradient>
<linearGradient id="paint1_linear_219_6875" x1="35.5677" y1="35.8724" x2="59.2204" y2="58.232" gradientUnits="userSpaceOnUse">
<stop stop-color="#FFE052"/>
<stop offset="1" stop-color="#FFC331"/>
</linearGradient>
</defs>
</svg>
